<?xml version="1.0" encoding="UTF-8" standalone="no"?>
<svg
   width="460"
   height="375"
   viewBox="0 0 460 375"
   version="1.1"
   id="svg2"
   sodipodi:docname="logo-full.svg"
   inkscape:version="1.3.2 (091e20e, 2023-11-25, custom)"
   xmlns:inkscape="http://www.inkscape.org/namespaces/inkscape"
   xmlns:sodipodi="http://sodipodi.sourceforge.net/DTD/sodipodi-0.dtd"
   xmlns="http://www.w3.org/2000/svg"
   xmlns:svg="http://www.w3.org/2000/svg">
  <defs
     id="defs2">
    <rect
       x="174.89317"
       y="484.2561"
       width="566.75287"
       height="74.247101"
       id="rect3" />
    <rect
       x="166.83534"
       y="401.33813"
       width="406.94882"
       height="74.263062"
       id="rect1" />
  </defs>
  <sodipodi:namedview
     id="namedview2"
     pagecolor="#ffffff"
     bordercolor="#000000"
     borderopacity="0.25"
     inkscape:showpageshadow="2"
     inkscape:pageopacity="0.0"
     inkscape:pagecheckerboard="0"
     inkscape:deskcolor="#d1d1d1"
     inkscape:lockguides="false"
     inkscape:zoom="1.4142136"
     inkscape:cx="231.57747"
     inkscape:cy="186.32264"
     inkscape:window-width="1920"
     inkscape:window-height="991"
     inkscape:window-x="-9"
     inkscape:window-y="-9"
     inkscape:window-maximized="1"
     inkscape:current-layer="svg2"
     showguides="false" />
  <path
     d="m 125.54862,1.3558174 c -0.272,0.709 -0.37,8.632 -0.219,17.6059986 l 0.276,16.317 6.263,2.354 c 7.637,2.87 12.439,6.415 16.312,12.044 6.013,8.74 6.001,8.54 5.699,92.510004 l -0.274,76.381 -2.382,5.27 c -3.153,6.978 -11.389,14.505 -18.356,16.778 -2.894,0.944 -5.824,2.162 -6.512,2.707 -0.912,0.722 -1.25,5.56 -1.25,17.867 v 16.878 h 111.5 111.5 v -38 -38 h -31.981 -31.981 l -0.609,2.75 c -3.17,14.321 -11.126,23.827 -23.624,28.228 -3.872,1.364 -5.815,1.566 -7.94,0.825 -3.799,-1.324 -8.633,-7.022 -9.358,-11.032 -0.326,-1.799 -0.461,-12.268 -0.3,-23.264 l 0.293,-19.993 10.408,-3.811 c 11.647,-4.264 12.051,-4.162 12.077,3.047 l 0.015,4.25 h 32.5 32.5 v -45.5 -45.500001 h -32.5 -32.5 v 3.365 c 0,1.937 -0.919,4.534 -2.166,6.119001 -2.547,3.237 -10.57,8.48 -16.584,10.835 l -4.25,1.665 V 85.019816 c 0,-26.771 0.151,-29.328 1.942,-32.839 2.253,-4.415 5.888,-7.113 9.585,-7.113 8.553,0 21.452,11.165 25.674,22.224 l 2.396,6.276 31.202,0.264 31.201,0.264 v -37.014 -37.01399853 h -109.031 c -88.036,0 -109.127,0.248 -109.526,1.28799993 m 42.557,17.5039986 v 8.791 l 5.25,2.606 c 7.161,3.554 12.614,8.527 16.566,15.106 6.295,10.479 6.16,8.423 6.16,94.205004 0,85.83 0.138,83.748 -6.187,93.591 -4.626,7.199 -8.787,11.096 -15.893,14.884 l -5.896,3.142 v 8.442 8.441 h 84.5 84.5 v -28 -28 h -5.949 -5.949 l -3.221,6.75 c -3.819,8.002 -12.228,16.872 -19.477,20.545 -10.165,5.151 -14.995,5.923 -34.733,5.549 -17.62,-0.334 -18.309,-0.425 -22.741,-3.031 -2.514,-1.478 -5.807,-4.471 -7.319,-6.653 -5.008,-7.227 -5.611,-11.284 -5.611,-37.784 0,-22.127 0.157,-24.389 1.75,-25.236 0.962,-0.512 6.025,-2.522 11.25,-4.467 25.905,-9.644 37.649,-13.673 39.849,-13.673 8.043,0 18.562,7.655 21.104,15.358 l 1.232,3.733 6.158,-0.296 6.157,-0.295 0.263,-34.433 c 0.206,-26.881 -0.013,-34.608 -1,-35.234 -0.694,-0.441 -3.583,-0.809 -6.419,-0.818 -5.034,-0.015 -5.24,0.101 -8.679,4.888 -3.788,5.273 -9.988,10.025 -17.297,13.259 -9.721,4.299 -52.683,19.761 -53.503,19.254 -0.476,-0.293 -0.865,-19.101 -0.865,-41.794001 0,-47.816003 0.116,-48.655003 7.807,-56.587003 6.534,-6.738 11.405,-8.035 30.18,-8.035 12.316,0 15.642,0.34 21.069,2.155 12.15,4.065 22.125,12.349 27.398,22.755 l 2.58,5.09 h 6.483 6.483 v -26.5 -26.499999 h -83 -83 v 8.791999 m -32,-0.292 v 7.5 h 11 11 v -7.5 -7.499998 h -11 -11 v 7.499998 m 16,18.924 c 0,0.381 1.329,2.354 2.954,4.385 1.624,2.03 4.212,6.391 5.75,9.691 l 2.796,6 0.292,79.000004 c 0.206,55.763 -0.036,80.324 -0.825,83.5 -1.428,5.748 -5.261,13.457 -9.076,18.25 l -2.985,3.75 h 6.075 c 11.127,0 21.351,-7.075 26.641,-18.435 l 2.358,-5.065 0.01,-78.572 c 0.011,-88.603004 0.398,-83.943004 -7.719,-92.972004 -5.903,-6.565 -11.047,-9.132 -19.521,-9.74 -3.712,-0.267 -6.75,-0.173 -6.75,0.208 m 127.809,11.348 c 2.198,2.625 5.029,6.9 6.292,9.5 l 2.298,4.728 h 10.3 c 5.666,0 10.301,-0.361 10.301,-0.803 0,-0.442 -1.365,-2.659 -3.034,-4.928 -5.512,-7.496 -16.929,-13.269 -26.241,-13.269 h -3.911 l 3.995,4.772 m -8.367,58.312004 c -3.621,5.225 -11.745,11.037 -19.459,13.922 -3.326,1.244 -5.874,2.436 -5.661,2.65 0.502,0.501 31.931,-11.102 37.233,-13.747 2.23,-1.113 5.38,-3.106 7,-4.43 l 2.945,-2.407 -9.614,-0.036 -9.614,-0.036 -2.83,4.084 m 7.058,59.171 c -2.75,1.152 -5.095,2.147 -5.21,2.213 -0.116,0.066 0.049,1.112 0.366,2.326 0.548,2.095 1.096,2.206 10.902,2.206 5.678,0 10.56,-0.382 10.848,-0.849 0.794,-1.283 -3.263,-5.193 -7.016,-6.761 -4.038,-1.687 -3.728,-1.714 -9.89,0.865 m 10.674,52.694 c -1.868,3.875 -5.359,8.903 -7.967,11.474 l -4.642,4.577 h 4.313 c 10.559,0 22.691,-6.473 28.788,-15.359 5.112,-7.45 4.935,-7.645 -6.916,-7.616 l -10.25,0.026 -3.326,6.898 m -153.174,41.551 v 7.5 h 11 11 v -7.5 -7.5 h -11 -11 v 7.5"
     style="fill:#24b3fb;fill-rule:evenodd;stroke:none"
     id="path1" />
  <text
     xml:space="preserve"
     id="text1"
     style="font-style:normal;font-variant:normal;font-weight:normal;font-stretch:normal;font-size:42.6667px;font-family:'Lucida Fax';-inkscape-font-specification:'Lucida Fax';text-align:center;white-space:pre;shape-inside:url(#rect1);display:inline;fill:#222831;fill-opacity:1;fill-rule:evenodd;stroke-width:0"
     transform="translate(-133.43603,-114.47183)"
     x="693.2605"
     y="0"><tspan
       x="237.06989"
       y="440.37344"
       id="tspan5"><tspan
         style="font-weight:600;-inkscape-font-specification:'Lucida Fax Semi-Bold'"
         id="tspan1">ECHOVERSE</tspan></tspan></text>
  <text
     xml:space="preserve"
     style="font-style:normal;font-variant:normal;font-weight:bold;font-stretch:normal;font-size:32.0082px;font-family:'Comic Sans MS';-inkscape-font-specification:'Comic Sans MS Bold';text-align:center;text-anchor:middle;fill:#222831;fill-opacity:1;fill-rule:evenodd;stroke-width:0"
     x="229.70801"
     y="365.98007"
     id="text4"
     transform="scale(1.0002578,0.99974227)"><tspan
       sodipodi:role="line"
       id="tspan4"
       x="229.70801"
       y="365.98007"
       style="font-style:normal;font-variant:normal;font-weight:bold;font-stretch:normal;font-size:32.0082px;font-family:'Comic Sans MS';-inkscape-font-specification:'Comic Sans MS Bold';fill:#222831;fill-opacity:1;stroke-width:0">A Universe that speak to You</tspan></text>
</svg>
