<?xml version="1.0" encoding="UTF-8" standalone="no"?>
<svg
   version="1.2"
   viewBox="0 0 510 641"
   width="510"
   height="641"
   id="svg1"
   sodipodi:docname="logo.svg"
   inkscape:version="1.3.2 (091e20e, 2023-11-25, custom)"
   xmlns:inkscape="http://www.inkscape.org/namespaces/inkscape"
   xmlns:sodipodi="http://sodipodi.sourceforge.net/DTD/sodipodi-0.dtd"
   xmlns="http://www.w3.org/2000/svg"
   xmlns:svg="http://www.w3.org/2000/svg">
  <defs
     id="defs1" />
  <sodipodi:namedview
     id="namedview1"
     pagecolor="#ffffff"
     bordercolor="#000000"
     borderopacity="0.25"
     inkscape:showpageshadow="2"
     inkscape:pageopacity="0.0"
     inkscape:pagecheckerboard="0"
     inkscape:deskcolor="#d1d1d1"
     inkscape:zoom="0.70710678"
     inkscape:cx="221.32442"
     inkscape:cy="333.04729"
     inkscape:window-width="1920"
     inkscape:window-height="991"
     inkscape:window-x="-9"
     inkscape:window-y="-9"
     inkscape:window-maximized="1"
     inkscape:current-layer="svg1" />
  <style
     id="style1">.a{fill:#1283d3}</style>
  <path
     fill-rule="evenodd"
     class="a"
     d="M 0.04003037,0.01328864 C -0.00653246,1.8610186 0.01324289,24.49364 0.01725111,44.905196 l 0.0086604,38.599343 16.56129049,3.820509 c 17.470196,6.601694 28.406132,14.109982 37.191145,27.113322 13.776496,20.10517 13.676664,19.70506 12.977857,213.25477 l -0.510588,177.19424 8.88e-4,0.006 c 0.03346,18.3866 -31.535624,44.45667 -47.408543,49.658 -6.588758,2.20058 -17.1220912,8.26462 -18.71936591,9.46492 -0.09636196,3.13787 -0.06925839,10.80659 -0.07552242,37.42232 l -0.0093107,39.56075 255.60019803,-0.0258 h 254.36603 v -87.6225 -87.6225 h -72.9755 -72.9755 l -1.39761,6.30163 c -7.18775,33.00846 -25.35673,54.9141 -53.90802,65.11671 -8.78503,3.10079 -13.27736,3.60093 -18.06919,1.90049 -8.68516,-3.10079 -19.76627,-16.20416 -21.36355,-25.40652 -0.79864,-4.20108 -1.09812,-28.30727 -0.69881,-53.61377 l 0.69881,-46.11185 23.75948,-8.80225 c 26.55468,-9.80251 27.45314,-9.60247 27.55299,7.00179 v 9.80253 h 74.17346 74.17343 V 316.9904 212.16346 h -74.17343 -74.17346 v 7.70199 c 0,4.50116 -2.09643,10.5027 -4.89166,14.10362 -5.88996,7.50193 -24.15877,19.60503 -37.93528,25.00643 l -9.68348,3.80097 v -66.91718 c 0,-61.71586 0.39931,-67.61736 4.49233,-75.71944 5.09131,-10.1026 13.37719,-16.3042 21.86271,-16.3042 19.46679,0 48.91653,25.70659 58.60002,51.21315 l 5.39079,14.4037 71.2784,0.60016 71.17857,0.70018 V 85.330905 0.00899634 H 252.13993 c -200.957155,0 -250.0690337,0.00185444 -252.09989963,0.0042923 z M 99.101022,43.220092 v 20.305212 l 11.979548,6.001542 c 16.37208,8.202107 28.75095,19.705062 37.83546,34.808934 14.37549,24.20622 14.07599,19.50502 14.07599,217.3558 0,197.95085 0.2995,193.14961 -14.17581,215.75542 -10.58196,16.60425 -20.06578,25.60659 -36.23818,34.40883 l -13.477008,7.20185 v 19.50502 19.40497 H 291.97197 484.94273 v -64.51656 -64.6166 H 471.3659 457.78906 l -7.38739,15.60401 c -8.68519,18.40473 -27.95233,38.91 -44.4242,47.41218 -23.26033,11.80302 -34.24159,13.60348 -79.3646,12.70325 -40.23136,-0.70018 -41.72881,-0.90023 -51.91145,-6.90177 -5.69028,-3.40086 -13.27735,-10.40267 -16.67154,-15.40395 -11.48042,-16.60426 -12.87804,-26.00667 -12.87804,-87.12237 0,-51.0131 0.39932,-56.21443 4.09302,-58.21494 2.19627,-1.20031 13.67666,-5.80151 25.65624,-10.30264 59.09915,-22.20572 85.95335,-31.5081 90.94483,-31.5081 18.36865,0 42.42762,17.60451 48.21773,35.40908 l 2.79524,8.60221 14.07597,-0.70018 14.07598,-0.7002 0.59899,-79.42036 c 0.39932,-61.9159 -0.0999,-79.72047 -2.29608,-81.22085 -1.59728,-1.00027 -8.18604,-1.9005 -14.67496,-1.9005 -11.48042,0 -11.97957,0.30007 -19.8661,11.3029 -8.58536,12.1031 -22.76118,23.10594 -39.43272,30.60786 -22.1622,9.90255 -120.29478,45.51169 -122.19155,44.41139 -1.09812,-0.70018 -1.99659,-44.1113 -1.99659,-96.42473 0,-110.32835 0.29949,-112.22882 17.86951,-130.533533 14.87463,-15.503981 26.05554,-18.504751 68.88248,-18.504751 28.15197,0 35.73902,0.800206 48.11791,5.001285 27.75264,9.302388 50.51381,28.407289 62.59322,52.413469 l 5.88995,11.80302 h 14.77479 14.77478 V 84.130596 23.014904 H 288.57774 99.101022 Z m -73.03,0.09366 v 17.204417 h 25.15708 25.05725 V 43.313748 26.009303 h -25.05725 -25.15708 z m 36.537663,43.611197 c 0,0.900231 2.994891,5.401387 6.788419,10.102593 3.693698,4.701198 21.117196,25.058498 19.396322,35.588908 l 0.02514,-0.0734 0.698808,182.14677 c 0.399319,128.63303 -0.09983,185.24759 -1.896764,192.64947 -3.294379,13.20338 -12.079392,31.00795 -20.764573,42.1108 l -6.788418,8.6022 H 73.94394 c 25.35674,0 62.68225,-26.55722 66.18797,-54.00139 l -8.9e-4,-0.21252 V 322.59183 c 0,-204.35247 0.89846,-193.54971 -17.57004,-214.35504 C 109.08399,93.032882 97.304086,87.131366 77.937129,85.731009 69.451606,85.130853 62.608685,86.024713 62.608685,86.924946 Z M 354.36551,112.43786 c 4.99149,6.00155 11.48042,15.90409 14.37548,21.90564 l 5.19114,10.90279 h 23.5598 c 12.87803,0 23.45999,-0.90023 23.45999,-1.9005 0,-1.00024 -3.09474,-6.10156 -6.88826,-11.30287 -12.57855,-17.30447 -38.6341,-30.60789 -59.8978,-30.60789 h -8.98467 z m -19.1673,134.43453 c -8.18604,12.10311 -26.75435,25.50655 -44.42419,32.10824 -7.58707,2.90074 -13.3772,5.60143 -12.87804,6.10156 1.09813,1.20032 72.87568,-25.60656 84.95506,-31.70813 5.09131,-2.50064 12.37889,-7.10184 16.0726,-10.20263 l 6.68854,-5.50142 -21.96252,-0.10003 -21.96251,-0.10006 z m 16.17242,136.43503 c -6.28929,2.70069 -11.68007,5.00128 -11.87974,5.20135 -0.2995,0.10003 0.0999,2.50063 0.79863,5.30135 1.29779,4.80121 2.49575,5.10131 24.85761,5.10131 12.97785,0 24.15878,-0.90025 24.75775,-2.00051 1.89676,-2.90076 -7.38739,-11.90305 -15.97275,-15.50399 -9.18433,-3.90101 -8.48552,-4.00103 -22.5615,1.90049 z m 24.35842,121.53119 c -4.29266,9.00232 -12.27903,20.60531 -18.16897,26.50681 l -10.58198,10.60274 h 9.78333 c 24.15876,0 51.81161,-15.00385 65.78775,-35.50912 11.68007,-17.10441 11.18094,-17.60453 -15.87293,-17.5045 H 383.31613 Z M 26.025696,600.76324 v 17.20443 h 25.157079 25.05725 V 600.76324 583.45881 H 51.182775 26.025696 Z"
     id="path1"
     sodipodi:nodetypes="ccccccccccsccccccccccccccccccccccscccscsccccccscccscsccccccccccccccccscssccccccscccscscccccccccccccccccccccccccccsccsccscccsscsccccccccccccccsccccccscccccccccccccc"
     style="stroke-width:1" />
</svg>
