<svg version="1.2" xmlns="http://www.w3.org/2000/svg" viewBox="0 0 510 641" width="510" height="641"><style>.a{fill:#1283d3}</style><path fill-rule="evenodd" class="a" d="m0.2 0.1c-0.6 1.7 0.2 22.9 0.6 43.6l-0.8 39.2 15.7 3.8c17.5 6.6 28.5 14.8 37.3 27.8 13.8 20.1 13.7 19.7 13 213.2l-0.6 176-5.4 12.2c-7.2 16.1-26.1 33.4-42 38.6-6.6 2.2-16.4 8.2-18 9.4-2.1 1.7 0.3 9.7 0.3 38.1v38.9h254.9 254.8v-87.6-87.6h-73.1-73.1l-1.4 6.3c-7.2 33-25.4 54.9-54 65.1-8.8 3.1-13.3 3.6-18.1 1.9-8.7-3.1-19.8-16.2-21.4-25.4-0.8-4.2-1.1-28.3-0.7-53.6l0.7-46.1 23.8-8.8c26.6-9.8 27.5-9.6 27.6 7v9.8h74.3 74.3v-104.9-104.8h-74.3-74.3v7.7c0 4.5-2.1 10.5-4.9 14.1-5.9 7.5-24.2 19.6-38 25l-9.7 3.8v-66.9c0-61.7 0.4-67.6 4.5-75.7 5.1-10.1 13.4-16.3 21.9-16.3 19.5 0 49 25.7 58.7 51.2l5.4 14.4 71.4 0.6 71.3 0.7v-85.4-85.3h-249.2c-201.3 0-250.6-2.4-251.5 0zm98.2 43.2v20.3l12 6c16.4 8.2 28.8 19.7 37.9 34.8 14.4 24.2 14.1 19.5 14.1 217.3 0 197.9 0.3 193.1-14.2 215.7-10.6 16.6-20.1 25.6-36.3 34.4l-13.5 7.2v19.5 19.4h193.2 193.3v-64.5-64.6h-13.6-13.6l-7.4 15.6c-8.7 18.4-28 38.9-44.5 47.4-23.3 11.8-34.3 13.6-79.5 12.7-40.3-0.7-41.8-0.9-52-6.9-5.7-3.4-13.3-10.4-16.7-15.4-11.5-16.6-12.9-26-12.9-87.1 0-51 0.4-56.2 4.1-58.2 2.2-1.2 13.7-5.8 25.7-10.3 59.2-22.2 86.1-31.5 91.1-31.5 18.4 0 42.5 17.6 48.3 35.4l2.8 8.6 14.1-0.7 14.1-0.7 0.6-79.4c0.4-61.9-0.1-79.7-2.3-81.2-1.6-1-8.2-1.9-14.7-1.9-11.5 0-12 0.3-19.9 11.3-8.6 12.1-22.8 23.1-39.5 30.6-22.2 9.9-120.5 45.5-122.4 44.4-1.1-0.7-2-44.1-2-96.4 0-110.3 0.3-112.2 17.9-130.5 14.9-15.5 26.1-18.5 69-18.5 28.2 0 35.8 0.8 48.2 5 27.8 9.3 50.6 28.4 62.7 52.4l5.9 11.8h14.8 14.8v-61.1-61.1h-189.8-189.8c0 0 0 20.2 0 20.2zm-73.2-0.6v17.2h25.2 25.1v-17.2-17.3h-25.1-25.2zm36.6 43.6c0 0.9 3 5.4 6.8 10.1 3.7 4.7 9.6 14.7 13.1 22.4l6.4 13.8 0.7 182.1c0.4 128.6-0.1 185.2-1.9 192.6-3.3 13.2-12.1 31-20.8 42.1l-6.8 8.6h13.9c25.4 0 48.8-16.3 60.9-42.5l5.4-11.7v-181.2c0-204.3 0.9-193.5-17.6-214.3-13.5-15.2-25.3-21.1-44.7-22.5-8.5-0.6-15.4-0.4-15.4 0.5zm292.3 26.2c5 6 11.5 15.9 14.4 21.9l5.2 10.9h23.6c12.9 0 23.5-0.9 23.5-1.9 0-1-3.1-6.1-6.9-11.3-12.6-17.3-38.7-30.6-60-30.6h-9c0 0 9.2 11 9.2 11zm-19.2 134.4c-8.2 12.1-26.8 25.5-44.5 32.1-7.6 2.9-13.4 5.6-12.9 6.1 1.1 1.2 73-25.6 85.1-31.7 5.1-2.5 12.4-7.1 16.1-10.2l6.7-5.5-22-0.1-22-0.1c0 0-6.5 9.4-6.5 9.4zm16.2 136.4c-6.3 2.7-11.7 5-11.9 5.2-0.3 0.1 0.1 2.5 0.8 5.3 1.3 4.8 2.5 5.1 24.9 5.1 13 0 24.2-0.9 24.8-2 1.9-2.9-7.4-11.9-16-15.5-9.2-3.9-8.5-4-22.6 1.9zm24.4 121.5c-4.3 9-12.3 20.6-18.2 26.5l-10.6 10.6h9.8c24.2 0 51.9-15 65.9-35.5 11.7-17.1 11.2-17.6-15.9-17.5h-23.4c0 0-7.6 15.9-7.6 15.9zm-350.3 95.9v17.2h25.2 25.1v-17.2-17.3h-25.1-25.2c0 0 0 17.3 0 17.3z"/></svg>